<?xml version="1.0" standalone="no"?>
<!DOCTYPE svg PUBLIC "-//W3C//DTD SVG 20010904//EN"
 "http://www.w3.org/TR/2001/REC-SVG-20010904/DTD/svg10.dtd">
<svg version="1.0" xmlns="http://www.w3.org/2000/svg"
 width="28398.000000pt" height="7748.000000pt" viewBox="0 0 28398.000000 7748.000000"
 preserveAspectRatio="xMidYMid meet">

<g transform="translate(0.000000,7748.000000) scale(0.100000,-0.100000)"
fill="#0C0A3E" stroke="none">
<path d="M36070 77464 c-25 -2 -175 -13 -335 -24 -1380 -97 -2307 -206 -3510
-416 -2805 -487 -5751 -1380 -8805 -2666 -5157 -2173 -9479 -5036 -13055
-8649 -555 -562 -1031 -1089 -1784 -1979 -746 -880 -1287 -1583 -1936 -2515
-981 -1407 -1781 -2755 -2571 -4328 -2472 -4925 -3815 -10125 -4044 -15667
-33 -805 -38 -2244 -11 -2970 53 -1370 140 -2504 292 -3760 729 -6047 2828
-12723 5637 -17935 2180 -4045 4921 -7515 8130 -10294 4251 -3681 9109 -5775
14347 -6186 648 -50 1154 -69 1895 -69 1084 1 1974 53 3050 180 3125 368 6548
1355 9905 2857 720 321 1737 817 2405 1172 2846 1512 5323 3238 7535 5249 437
398 702 652 1225 1176 576 575 916 933 1361 1430 2069 2314 3830 4863 5329
7715 177 337 615 1219 790 1590 2574 5457 4013 11196 4255 16970 46 1107 48
2458 5 3545 -200 5008 -1244 10134 -3081 15126 -1756 4772 -4074 8764 -6913
11904 -599 662 -1357 1419 -2016 2016 -1886 1703 -4136 3205 -6365 4248 -2452
1148 -5022 1856 -7875 2170 -440 49 -744 66 -1730 97 -325 10 -2045 21 -2130
13z m-3860 -6004 c1094 -24 1677 -51 2040 -96 2339 -288 4463 -942 6460 -1989
2760 -1446 5133 -3385 7440 -6080 3227 -3770 5865 -8789 7854 -14941 2289
-7083 3163 -13453 2636 -19209 -558 -6079 -2501 -11054 -5834 -14940 -621
-724 -1378 -1491 -2131 -2161 -3177 -2823 -7611 -4918 -11820 -5583 -1066
-169 -2026 -244 -3105 -244 -955 0 -1761 56 -2665 184 -2813 398 -5430 1378
-7946 2975 -2265 1438 -4463 3403 -6555 5864 -3834 4510 -6823 10266 -9088
17505 -1141 3648 -1792 7120 -1971 10505 -36 694 -40 876 -40 1870 0 995 4
1176 40 1850 207 3818 1038 7383 2444 10477 671 1479 1532 2946 2437 4153 862
1151 1910 2314 2924 3245 2121 1948 4838 3609 7890 4827 2334 930 4697 1520
6885 1718 127 11 345 32 485 45 140 14 282 26 315 28 143 8 887 6 1305 -3z"/>
<path d="M30465 55638 c-16 -6 -201 -71 -410 -146 -209 -74 -445 -156 -524
-183 -154 -52 -204 -80 -247 -137 -37 -47 -73 -139 -74 -182 0 -19 24 -116 54
-215 90 -301 415 -1494 546 -2010 l51 -200 -33 -28 c-48 -41 -256 -178 -453
-297 -378 -228 -833 -545 -1138 -793 -675 -547 -1367 -1309 -1842 -2027 -349
-527 -580 -1014 -825 -1735 -308 -911 -459 -1683 -510 -2605 -13 -240 -13
-972 0 -1210 47 -840 243 -1820 539 -2691 686 -2021 1942 -3284 3721 -3743
358 -92 467 -100 1288 -93 339 3 687 10 772 16 423 30 839 77 1382 157 454 66
675 94 745 94 l62 0 10 -37 c200 -778 1902 -7640 2281 -9198 301 -1238 430
-1808 430 -1898 0 -36 -3 -39 -46 -59 -149 -65 -795 -227 -1149 -288 -448 -77
-1233 -88 -1604 -24 -388 67 -899 226 -1351 419 -524 224 -1171 579 -1321 724
-42 41 -51 58 -83 159 -83 258 -445 1546 -711 2531 -184 681 -205 745 -274
823 -70 81 -144 77 -446 -21 -392 -128 -426 -146 -472 -239 -27 -54 -28 -63
-27 -192 1 -155 14 -240 114 -783 269 -1451 526 -3049 675 -4202 92 -709 109
-776 238 -912 75 -80 140 -98 507 -143 1373 -166 2839 -116 4280 146 514 94
1421 314 1870 454 160 49 190 55 214 37 14 -10 41 -109 112 -408 174 -726 406
-1720 761 -3266 24 -104 58 -161 117 -198 46 -28 56 -30 140 -29 106 1 179 22
653 184 505 173 558 200 635 320 26 41 48 83 48 92 0 10 -86 318 -191 685
-391 1372 -871 3167 -857 3205 3 7 154 110 334 228 1035 676 1705 1207 2345
1856 836 849 1426 1743 1847 2799 428 1072 680 2253 743 3485 13 251 7 937
-10 1165 -29 380 -63 697 -107 985 -310 2048 -1110 3706 -2199 4556 -744 580
-1750 948 -2800 1024 -308 22 -838 10 -1370 -31 -714 -55 -1319 -132 -2458
-315 -129 -20 -232 -33 -237 -28 -4 5 -139 538 -300 1184 -758 3051 -1867
7540 -2237 9058 l-38 154 27 23 c47 41 287 110 658 189 351 75 519 89 1075 90
572 0 861 -27 1201 -113 377 -95 676 -231 1287 -586 l187 -109 129 -326 c252
-631 564 -1524 771 -2200 176 -578 198 -636 259 -697 73 -73 176 -62 510 52
234 80 287 111 323 184 50 104 33 235 -221 1666 -254 1432 -326 1956 -376
2720 -36 551 -63 715 -136 815 -44 60 -107 95 -261 145 -514 166 -1255 231
-2198 195 -830 -32 -1589 -136 -2710 -372 -377 -79 -705 -144 -808 -159 -71
-11 -85 -11 -92 2 -5 8 -21 64 -35 124 -128 540 -369 1621 -439 1964 -51 249
-58 266 -151 348 -47 42 -115 84 -132 82 -4 0 -21 -5 -38 -11z m-156 -4841
c79 -324 545 -2210 966 -3907 738 -2975 1429 -5799 1447 -5915 14 -88 -553
-142 -1362 -132 -704 9 -893 36 -1355 191 -309 104 -613 241 -755 340 -195
137 -536 498 -746 793 -245 342 -501 904 -683 1497 -231 750 -368 1476 -412
2176 -15 238 -6 829 15 1040 65 626 205 1205 428 1764 322 806 782 1388 1512
1910 311 223 790 506 855 506 26 0 27 -3 90 -263z m6901 -12776 c262 -21 427
-43 595 -76 512 -103 926 -278 1272 -536 458 -343 878 -872 1178 -1484 280
-572 485 -1265 634 -2145 66 -386 66 -392 66 -1220 0 -892 -5 -963 -101 -1435
-259 -1265 -798 -2340 -1551 -3091 -209 -209 -472 -420 -699 -562 -264 -165
-793 -432 -855 -432 -12 0 -21 12 -29 38 -33 118 -1216 4871 -1876 7537 -688
2778 -806 3263 -799 3275 21 33 515 109 915 140 143 11 1083 4 1250 -9z"/>
<path d="M88390 52630 c-721 -28 -1628 -202 -2415 -465 -783 -261 -1484 -604
-2166 -1060 -832 -556 -1620 -1268 -2280 -2061 -1669 -2003 -2708 -4660 -3088
-7894 -70 -593 -93 -1016 -112 -2056 -22 -1237 19 -2111 151 -3192 321 -2622
1073 -4791 2301 -6637 322 -484 625 -878 1004 -1305 174 -195 603 -623 800
-797 1024 -905 2128 -1523 3396 -1903 917 -274 1811 -393 2969 -394 555 0 889
19 1380 80 1718 212 3233 856 4515 1918 525 436 1177 1141 1707 1849 319 426
591 884 897 1508 515 1051 865 2149 1101 3449 103 571 204 1392 217 1763 l6
177 -1979 -2 -1978 -3 -13 -80 c-7 -44 -38 -253 -68 -465 -86 -604 -153 -960
-265 -1408 -183 -740 -403 -1354 -692 -1932 -565 -1136 -1322 -1918 -2323
-2401 -306 -147 -668 -277 -1015 -363 -364 -89 -645 -116 -1316 -123 -650 -7
-904 8 -1272 77 -505 95 -992 258 -1441 485 -532 268 -958 581 -1417 1039
-219 220 -364 382 -522 585 -838 1076 -1526 2767 -1871 4602 -251 1332 -336
2816 -245 4274 131 2111 600 4013 1306 5300 679 1237 1601 2222 2637 2815 543
311 1213 547 1746 614 259 33 440 40 1060 40 800 0 906 -9 1340 -119 669 -170
1267 -438 1772 -796 540 -384 1047 -919 1438 -1519 461 -705 789 -1550 961
-2472 l28 -148 1690 0 c1623 0 2089 7 2203 31 62 12 60 6 38 154 -75 499 -259
1399 -371 1807 -427 1561 -1089 2840 -2025 3913 -141 163 -624 646 -784 786
-729 638 -1538 1164 -2350 1529 -962 432 -2031 710 -2960 770 -463 30 -1313
45 -1695 30z"/>
<path d="M232420 50065 l0 -2085 1795 0 1795 0 0 2085 0 2085 -1795 0 -1795 0
0 -2085z"/>
<path d="M136170 38775 l0 -13295 1795 0 1795 0 0 3293 c1 3582 14 7156 30
7742 9 369 27 603 71 913 235 1696 816 2929 1694 3598 355 270 995 536 1440
599 392 55 1090 59 1500 9 462 -57 994 -272 1316 -532 337 -272 588 -688 799
-1321 140 -421 227 -824 265 -1226 55 -592 57 -858 62 -7207 l4 -5868 1836 0
1835 0 -7 3588 c-11 5870 -24 9944 -35 10322 -12 450 -23 585 -66 845 -201
1204 -525 2089 -1042 2845 -725 1062 -1809 1753 -3157 2014 -284 54 -619 96
-945 117 -234 15 -797 6 -1010 -16 -1444 -147 -2594 -700 -3566 -1715 -334
-349 -579 -673 -920 -1213 l-99 -157 -3 4980 -2 4980 -1795 0 -1795 0 0
-13295z"/>
<path d="M155965 52060 c-534 -4 -1000 -10 -1036 -14 l-66 -7 -7 -132 c-11
-207 -25 -10836 -26 -18999 l0 -7428 823 0 c2029 0 9372 21 10302 30 1377 14
1523 21 1912 100 2119 427 3689 1579 4725 3467 482 879 807 1985 927 3153 41
392 46 514 46 1045 -1 553 -8 702 -60 1151 -139 1208 -473 2180 -1049 3054
-439 665 -890 1123 -1501 1526 -389 256 -842 481 -1355 673 -91 34 -178 67
-193 73 l-28 11 23 24 c30 32 220 160 368 248 1433 854 2412 2394 2699 4245
62 398 81 830 63 1392 -23 675 -58 1001 -157 1443 -332 1489 -1100 2715 -2230
3558 -953 712 -2096 1129 -3565 1301 -393 46 -554 56 -1105 66 -1343 25 -7120
37 -9510 20z m8995 -3809 c405 -12 463 -17 765 -67 659 -110 1118 -260 1570
-514 354 -198 581 -397 760 -665 123 -185 202 -349 310 -639 171 -462 205
-755 205 -1776 0 -744 -9 -853 -92 -1189 -126 -511 -295 -853 -610 -1231 -261
-314 -420 -437 -828 -644 -480 -244 -934 -378 -1620 -476 -331 -48 -617 -52
-3832 -57 l-2878 -5 0 3642 0 3642 2943 -5 c1753 -3 3089 -10 3307 -16z
m-2300 -10661 c2598 -15 3314 -29 3570 -71 408 -67 923 -213 1295 -365 177
-73 510 -240 639 -322 513 -324 925 -875 1160 -1552 119 -340 198 -746 243
-1240 22 -242 25 -916 5 -1140 -65 -735 -189 -1240 -412 -1680 -146 -287 -373
-588 -632 -835 -121 -116 -207 -179 -408 -301 -499 -302 -1030 -501 -1716
-644 -639 -133 -873 -140 -4845 -140 l-2827 0 -6 2913 c-4 1601 -8 3472 -9
4155 l-2 1244 1075 -7 c591 -3 1883 -10 2870 -15z"/>
<path d="M224845 52058 c-2 -7 -7 -2168 -10 -4803 -3 -2634 -8 -4832 -13
-4884 l-7 -95 -43 57 c-23 31 -88 128 -143 214 -261 409 -540 754 -904 1119
-416 418 -912 769 -1459 1034 -401 195 -798 328 -1252 419 -578 116 -1317 156
-2039 110 -543 -34 -1092 -143 -1630 -324 -1864 -625 -3359 -2154 -4250 -4349
-460 -1133 -725 -2259 -869 -3696 -43 -430 -51 -661 -51 -1600 1 -1219 18
-1596 111 -2330 213 -1701 680 -3181 1379 -4375 592 -1010 1303 -1813 2124
-2398 820 -586 1776 -963 2811 -1111 232 -33 364 -44 670 -56 325 -12 638 -12
955 0 321 13 443 24 695 66 907 152 1690 473 2352 966 209 155 345 274 559
488 411 411 696 796 1036 1400 58 102 109 189 114 195 5 5 9 -508 9 -1308 l0
-1317 1705 0 1705 0 0 13295 0 13295 -1775 0 c-1412 0 -1776 -3 -1780 -12z
m-4302 -10248 c346 -15 611 -49 842 -106 802 -200 1411 -576 1981 -1224 687
-781 1121 -1757 1358 -3055 67 -364 133 -871 156 -1190 40 -563 35 -1634 -11
-2330 -36 -560 -152 -1238 -310 -1815 -269 -984 -685 -1797 -1240 -2426 -636
-720 -1533 -1173 -2462 -1245 -173 -13 -719 -7 -912 11 -704 64 -1156 219
-1710 585 -726 480 -1302 1213 -1718 2186 -347 812 -585 1840 -651 2814 -53
768 -57 1786 -11 2324 188 2179 893 3784 2071 4717 243 193 493 338 836 485
408 175 747 246 1278 268 259 11 257 11 503 1z"/>
<path d="M277040 47635 l0 -2895 -1367 -2 -1368 -3 -3 -1542 -2 -1543 1370 0
1370 0 0 -1477 c0 -2594 19 -8718 30 -9593 20 -1640 44 -2013 165 -2546 63
-280 150 -504 335 -869 243 -479 495 -854 679 -1012 298 -255 799 -479 1429
-639 328 -83 727 -151 1012 -174 519 -40 1657 -31 2430 20 313 21 750 65 838
85 l22 5 0 1675 c0 1333 -3 1675 -12 1675 -7 0 -88 -9 -180 -20 -237 -28 -471
-40 -798 -40 -638 0 -1260 44 -1435 101 -187 62 -375 189 -488 330 -164 205
-290 597 -352 1099 -27 216 -35 1510 -42 6578 l-6 4802 1657 0 1656 0 -2 1543
-3 1542 -1652 3 -1653 2 0 2895 0 2895 -1815 0 -1815 0 0 -2895z"/>
<path d="M108155 45299 c-536 -22 -986 -82 -1509 -200 -1294 -293 -2370 -879
-3134 -1709 -966 -1048 -1455 -2213 -1727 -4115 -24 -170 -47 -345 -51 -387
l-7 -78 1711 0 c941 0 1713 4 1716 8 2 4 25 127 51 272 104 595 192 938 331
1290 345 869 869 1382 1684 1645 445 143 924 205 1595 205 711 0 1274 -85
1760 -265 152 -56 406 -184 540 -272 623 -411 966 -1037 1067 -1948 21 -189
17 -899 -5 -1085 -54 -438 -156 -704 -343 -886 -154 -150 -469 -325 -760 -422
-379 -127 -1505 -344 -2739 -527 -1007 -149 -2432 -408 -2871 -520 -351 -90
-1208 -407 -1751 -649 -322 -143 -404 -189 -568 -321 -331 -267 -944 -870
-1225 -1205 -232 -277 -387 -618 -575 -1265 -182 -624 -250 -980 -275 -1425
-22 -400 -10 -1376 20 -1710 60 -651 292 -1428 601 -2019 247 -469 520 -843
884 -1206 334 -335 654 -577 1070 -810 553 -310 1275 -543 1935 -624 328 -41
447 -46 1030 -46 607 1 769 9 1210 61 1565 185 2894 745 3940 1661 74 65 234
216 356 336 l221 217 32 -162 c37 -190 83 -350 153 -538 104 -279 234 -535
349 -690 278 -375 775 -684 1318 -820 147 -36 217 -46 416 -61 203 -15 834 -6
1035 15 334 34 729 112 1373 273 l347 86 0 1499 c0 1423 -1 1499 -17 1494
-136 -42 -414 -60 -792 -53 -299 6 -342 12 -440 57 -133 62 -219 152 -292 305
-66 136 -89 248 -100 490 -15 334 -28 2931 -29 5550 -1 4424 -22 5505 -120
6092 -166 988 -509 1765 -1088 2458 -101 121 -403 421 -527 524 -776 645
-1801 1101 -3000 1335 -642 125 -1071 157 -2055 154 -300 0 -635 -5 -745 -9z
m4004 -11879 c1 -942 -8 -1387 -34 -1665 -73 -773 -209 -1366 -405 -1758 -148
-294 -521 -733 -837 -984 -928 -737 -2121 -1062 -3538 -962 -680 48 -1163 210
-1600 539 -408 307 -706 765 -869 1336 -147 516 -169 1135 -60 1684 108 545
352 1062 652 1381 288 307 755 563 1439 789 436 144 796 217 2134 435 1003
163 1404 240 1759 335 188 51 440 137 604 206 120 51 624 303 706 352 l35 22
6 -398 c4 -218 7 -809 8 -1312z"/>
<path d="M125250 45289 c-639 -42 -904 -70 -1290 -135 -414 -70 -757 -156
-1155 -289 -745 -249 -1389 -606 -1945 -1081 -236 -201 -544 -525 -747 -786
-576 -741 -915 -1597 -1032 -2614 -37 -319 -46 -482 -46 -899 0 -419 8 -573
46 -875 69 -554 232 -1098 474 -1580 347 -693 899 -1269 1631 -1703 798 -472
2201 -955 5594 -1927 696 -200 986 -298 1280 -434 315 -146 680 -361 873 -515
426 -339 646 -738 707 -1281 14 -125 14 -475 0 -620 -108 -1096 -800 -1900
-1980 -2302 -243 -83 -483 -143 -676 -168 -303 -40 -1398 -40 -1758 0 -520 58
-1130 274 -1550 550 -187 123 -321 233 -481 394 -331 332 -569 707 -748 1176
-144 378 -288 1017 -285 1266 1 106 -19 129 -132 153 -121 26 -408 31 -1854
31 l-1509 0 7 -137 c26 -526 118 -1187 237 -1702 287 -1242 845 -2267 1671
-3066 1253 -1213 3036 -1805 5438 -1805 2065 0 3586 437 4885 1405 218 162
344 272 575 504 292 293 510 546 735 856 359 494 681 1253 839 1981 175 800
211 1803 91 2541 -75 460 -193 845 -408 1325 -489 1089 -1018 1658 -2087 2240
-613 334 -1190 579 -1970 836 -659 217 -1155 356 -2670 748 -1699 439 -2424
738 -2840 1170 -206 215 -385 498 -439 694 -68 247 -86 851 -36 1169 59 370
236 716 510 1000 271 279 629 489 1080 629 368 115 570 135 1365 136 410 1
522 -2 650 -17 539 -61 912 -175 1326 -407 690 -386 1136 -965 1363 -1770 51
-181 80 -316 126 -590 20 -118 38 -216 40 -218 5 -5 2086 -21 2812 -22 l662 0
-5 63 c-2 34 -11 188 -20 342 -31 585 -92 1019 -209 1485 -202 810 -549 1503
-1045 2085 -124 146 -417 437 -560 556 -868 724 -2013 1241 -3235 1463 -259
47 -587 82 -1155 126 -611 46 -715 48 -1150 19z"/>
<path d="M183110 45299 c-874 -36 -1689 -196 -2475 -486 -899 -333 -1698 -873
-2282 -1543 -843 -969 -1293 -2019 -1562 -3640 -44 -266 -111 -742 -111 -790
l0 -30 1709 0 c941 0 1712 4 1715 8 3 5 30 149 60 320 86 481 141 711 251
1037 303 902 792 1468 1530 1768 519 212 1120 299 1955 284 443 -8 724 -35
1055 -102 1203 -241 1907 -914 2124 -2028 51 -262 63 -393 68 -764 12 -808
-72 -1215 -311 -1505 -132 -159 -482 -366 -803 -473 -405 -136 -1465 -339
-2878 -550 -1165 -175 -2512 -428 -2903 -546 -533 -161 -1639 -600 -1928 -765
-89 -50 -213 -143 -354 -265 -379 -325 -967 -923 -1170 -1189 -227 -298 -424
-813 -630 -1645 -142 -575 -166 -846 -157 -1810 8 -861 34 -1113 173 -1655
239 -935 641 -1686 1247 -2334 572 -611 1351 -1084 2190 -1330 430 -126 771
-190 1222 -228 239 -20 1223 -17 1495 5 1717 139 3093 652 4215 1572 172 140
282 241 521 478 l211 208 32 -163 c54 -270 125 -487 253 -778 188 -428 390
-672 752 -913 133 -88 386 -215 540 -272 236 -87 435 -128 701 -146 216 -15
824 -6 1031 15 314 32 724 113 1327 263 l387 96 0 1499 c0 1423 -1 1499 -17
1494 -136 -42 -414 -60 -792 -53 -152 3 -298 10 -326 16 -163 35 -317 163
-399 333 -75 155 -95 254 -107 528 -13 332 -28 3329 -29 5945 -1 4068 -23
5105 -121 5685 -161 951 -477 1682 -1026 2371 -116 145 -433 470 -578 591
-887 741 -2090 1228 -3525 1427 -201 28 -461 49 -750 61 -281 11 -1241 11
-1530 -1z m3999 -11824 c1 -1042 -7 -1439 -34 -1730 -70 -744 -203 -1331 -390
-1720 -110 -227 -316 -497 -589 -770 -184 -184 -254 -243 -467 -395 -367 -263
-831 -485 -1294 -619 -544 -157 -1183 -229 -1811 -202 -623 27 -1016 107
-1391 286 -169 81 -278 147 -426 258 -220 166 -383 339 -529 562 -237 361
-382 772 -455 1285 -25 180 -25 741 0 920 62 434 159 757 331 1100 126 252
241 417 405 581 183 182 365 307 666 454 524 257 1008 405 1804 550 290 53
431 77 1366 230 1460 239 1816 342 2585 747 l215 113 6 -310 c4 -170 7 -773 8
-1340z"/>
<path d="M246510 45289 c-274 -14 -588 -63 -974 -150 -1742 -394 -3107 -1294
-4231 -2791 -735 -978 -1280 -2143 -1615 -3453 -236 -917 -367 -1800 -446
-2980 -21 -324 -30 -1297 -15 -1635 79 -1738 402 -3238 975 -4529 578 -1300
1397 -2389 2405 -3198 680 -545 1453 -949 2330 -1217 417 -128 804 -209 1249
-261 552 -64 1401 -73 1972 -19 1077 100 1956 389 2875 944 1306 789 2346
2021 3004 3557 309 721 523 1460 695 2398 56 301 128 809 118 820 -3 3 -803 5
-1778 5 -1680 0 -1773 -1 -1778 -17 -8 -30 -34 -168 -72 -388 -19 -115 -49
-271 -66 -345 -76 -342 -234 -853 -358 -1160 -360 -895 -915 -1592 -1595
-2005 -581 -353 -1263 -522 -2025 -501 -1272 34 -2216 550 -3000 1641 -700
976 -1102 2294 -1225 4020 -47 658 -49 1580 -5 2200 105 1484 437 2729 970
3640 400 683 881 1230 1365 1555 509 340 1068 543 1700 616 182 21 614 24 785
5 679 -74 1208 -265 1680 -609 383 -279 725 -671 991 -1137 88 -153 236 -463
304 -635 147 -370 310 -944 364 -1280 l16 -105 1645 0 c1656 1 1844 4 1915 37
23 10 25 16 25 74 0 114 -87 695 -161 1072 -458 2349 -1746 4164 -3629 5116
-427 216 -1022 426 -1603 566 -410 98 -625 123 -1277 150 -285 11 -1303 11
-1530 -1z"/>
<path d="M202960 45250 c-212 -23 -430 -54 -605 -86 -1198 -218 -2196 -735
-3036 -1574 -454 -453 -836 -939 -1265 -1613 l-31 -48 -6 623 c-4 343 -7 877
-7 1188 0 311 -3 663 -7 783 l-6 217 -1704 0 -1703 0 0 -9630 0 -9630 1814 0
1814 0 5 5303 c5 5353 10 6054 42 6391 149 1535 562 2685 1239 3454 171 194
343 343 559 486 466 307 1030 503 1672 582 180 22 594 30 780 15 991 -79 1542
-332 2017 -926 250 -311 383 -584 537 -1100 165 -556 260 -1088 291 -1630 21
-365 30 -2596 30 -7482 l0 -5093 1822 0 1821 0 -6 5848 c-7 5693 -16 7790 -37
8097 -37 533 -144 1208 -277 1730 -251 993 -615 1757 -1152 2415 -177 217
-485 514 -719 693 -693 529 -1626 875 -2572 951 -437 36 -1135 55 -1310 36z"/>
<path d="M232420 35110 l0 -9630 1795 0 1795 0 0 9630 0 9630 -1795 0 -1795 0
0 -9630z"/>
<path d="M257664 40888 c10 -5250 24 -9081 36 -9568 20 -833 39 -1037 145
-1585 126 -649 338 -1327 573 -1832 400 -857 955 -1542 1648 -2031 247 -175
630 -382 924 -500 468 -188 1076 -335 1540 -372 473 -38 1366 -14 1715 46
1408 240 2634 984 3656 2219 192 232 375 481 603 820 l161 240 6 -730 c3 -401
7 -1042 8 -1422 l1 -693 1695 0 1695 0 -2 9628 -3 9627 -1793 3 c-1429 2
-1793 0 -1796 -10 -3 -7 -9 -2074 -16 -4593 -13 -5399 -21 -6365 -61 -6805
-23 -262 -105 -770 -175 -1093 -190 -877 -493 -1644 -880 -2230 -469 -708
-1082 -1154 -1847 -1342 -350 -85 -625 -118 -1002 -119 -387 -1 -633 28 -967
113 -217 55 -384 118 -603 226 -854 420 -1187 895 -1450 2073 -76 343 -113
563 -125 747 -22 349 -30 1224 -40 4740 -6 1986 -14 4663 -18 5950 l-7 2340
-1814 3 -1813 2 6 -3852z"/>
</g>
</svg>
